<?xml version="1.0" encoding="UTF-8" standalone="no"?>
<!-- Created with Inkscape (http://www.inkscape.org/) -->

<svg
   xmlns:dc="http://purl.org/dc/elements/1.1/"
   xmlns:cc="http://creativecommons.org/ns#"
   xmlns:rdf="http://www.w3.org/1999/02/22-rdf-syntax-ns#"
   xmlns:svg="http://www.w3.org/2000/svg"
   xmlns="http://www.w3.org/2000/svg"
   xmlns:sodipodi="http://sodipodi.sourceforge.net/DTD/sodipodi-0.dtd"
   xmlns:inkscape="http://www.inkscape.org/namespaces/inkscape"
   version="1.1"
   id="svg2"
   xml:space="preserve"
   width="156.67819"
   height="165.41612"
   viewBox="0 0 156.67819 165.41612"
   sodipodi:docname="corona1.svg"
   inkscape:version="0.92.4 (5da689c313, 2019-01-14)"><metadata
     id="metadata8"><rdf:RDF><cc:Work
         rdf:about=""><dc:format>image/svg+xml</dc:format><dc:type
           rdf:resource="http://purl.org/dc/dcmitype/StillImage" /><dc:title></dc:title></cc:Work></rdf:RDF></metadata><defs
     id="defs6"><clipPath
       clipPathUnits="userSpaceOnUse"
       id="clipPath28"><path
         d="M 0,500 H 500 V 0 H 0 Z"
         id="path26"
         inkscape:connector-curvature="0" /></clipPath><clipPath
       clipPathUnits="userSpaceOnUse"
       id="clipPath192"><path
         d="M 0,500 H 500 V 0 H 0 Z"
         id="path190"
         inkscape:connector-curvature="0" /></clipPath></defs><sodipodi:namedview
     pagecolor="#ffffff"
     bordercolor="#666666"
     borderopacity="1"
     objecttolerance="10"
     gridtolerance="10"
     guidetolerance="10"
     inkscape:pageopacity="0"
     inkscape:pageshadow="2"
     inkscape:window-width="1366"
     inkscape:window-height="706"
     id="namedview4"
     showgrid="false"
     fit-margin-top="0"
     fit-margin-left="0"
     fit-margin-right="0"
     fit-margin-bottom="0"
     inkscape:zoom="0.70799998"
     inkscape:cx="50.3739"
     inkscape:cy="47.397579"
     inkscape:window-x="-8"
     inkscape:window-y="-8"
     inkscape:window-maximized="1"
     inkscape:current-layer="g10" /><g
     id="g10"
     inkscape:groupmode="layer"
     inkscape:label="115427-OP2RZQ-266"
     transform="matrix(1.3333333,0,0,-1.3333333,-253.67854,453.43258)"><g
       id="g574"><path
         inkscape:connector-curvature="0"
         id="path50"
         style="fill:#ffcc00;fill-opacity:1;fill-rule:nonzero;stroke:none"
         d="m 206.43003,221.75434 h 42.583 v 15.207 h -42.583 z" /><g
         style="fill:#ffcc00"
         transform="translate(243.62383,247.04944)"
         id="g52"><path
           inkscape:connector-curvature="0"
           id="path54"
           style="fill:#ffcc00;fill-opacity:1;fill-rule:nonzero;stroke:none"
           d="m 0,0 h -6.522 c 0,0 -11.149,20.676 -6.083,32.952 C -8.424,43.093 0,37.262 0,37.262 Z m -30.097,0 c 0,0 -8.492,10.393 -7.477,20.912 1.013,10.52 10.397,11.36 10.397,11.36 0,0 -4.981,-17.538 7.885,-32.272 z M 5.39,46.64 v 0 46.385 L -1.074,80.858 3.237,71.479 v -4.814 c 0,0 -3.932,8.237 -10.394,7.096 -6.463,-1.141 -10.014,-11.152 -1.141,-15.335 0,0 1.773,6.337 5.323,6.718 3.549,0.38 5.196,-3.169 5.702,-5.957 h -3.801 v -3.548 h 3.801 v -7.467 c -5.55,2.786 -18.706,7.24 -29.021,-6.095 0,0 -21.627,6.031 -26.614,-18.249 -3.645,-17.744 15.715,-30.164 15.715,-30.164 V -8.082 H 5.39 v 1.746 0.984 z" /></g><path
         inkscape:connector-curvature="0"
         id="path56"
         style="fill:#ffcc00;fill-opacity:1;fill-rule:nonzero;stroke:none"
         d="m 206.43003,216.01234 h 42.583 v 3.736 h -42.583 z" /><g
         style="fill:#ffdd55"
         transform="translate(284.49783,247.04944)"
         id="g58"><path
           inkscape:connector-curvature="0"
           id="path60"
           style="fill:#ffdd55;fill-opacity:1;fill-rule:nonzero;stroke:none"
           d="m 0,0 h -10.802 c 12.865,14.734 7.884,32.272 7.884,32.272 0,0 9.382,-0.84 10.397,-11.36 C 8.494,10.393 0,0 0,0 m -23.571,0 h -6.524 v 37.262 c 0,0 8.424,5.831 12.606,-4.31 C -12.425,20.676 -23.571,0 -23.571,0 m 46.384,23.828 c -4.988,24.28 -26.615,18.249 -26.615,18.249 -10.315,13.335 -23.471,8.881 -29.023,6.095 v 7.467 h 3.805 v 3.548 h -3.805 c 0.51,2.788 2.155,6.337 5.704,5.957 3.552,-0.381 5.323,-6.718 5.323,-6.718 8.873,4.183 5.323,14.194 -1.14,15.335 -6.462,1.141 -10.394,-7.096 -10.394,-7.096 v 4.814 l 4.312,9.379 -6.464,12.167 V 46.641 46.64 -5.352 -6.336 -8.082 H 7.099 v 1.746 c 0,0 19.358,12.42 15.714,30.164" /></g><path
         inkscape:connector-curvature="0"
         id="path62"
         style="fill:#ffdd55;fill-opacity:1;fill-rule:nonzero;stroke:none"
         d="m 249.01303,216.01234 h 42.583 v 3.736 h -42.583 z" /><path
         inkscape:connector-curvature="0"
         id="path64"
         style="fill:#ffdd55;fill-opacity:1;fill-rule:nonzero;stroke:none"
         d="m 249.01303,221.75434 h 42.583 v 15.207 h -42.583 z" /></g></g></svg>