<?xml version="1.0" encoding="UTF-8" standalone="no"?>
<!-- Created with Inkscape (http://www.inkscape.org/) -->

<svg
   xmlns:dc="http://purl.org/dc/elements/1.1/"
   xmlns:cc="http://creativecommons.org/ns#"
   xmlns:rdf="http://www.w3.org/1999/02/22-rdf-syntax-ns#"
   xmlns:svg="http://www.w3.org/2000/svg"
   xmlns="http://www.w3.org/2000/svg"
   xmlns:sodipodi="http://sodipodi.sourceforge.net/DTD/sodipodi-0.dtd"
   xmlns:inkscape="http://www.inkscape.org/namespaces/inkscape"
   version="1.1"
   id="svg2"
   xml:space="preserve"
   width="178.9444"
   height="119.52213"
   viewBox="0 0 178.94439 119.52213"
   sodipodi:docname="corona2.svg"
   inkscape:version="0.92.4 (5da689c313, 2019-01-14)"><metadata
     id="metadata8"><rdf:RDF><cc:Work
         rdf:about=""><dc:format>image/svg+xml</dc:format><dc:type
           rdf:resource="http://purl.org/dc/dcmitype/StillImage" /><dc:title></dc:title></cc:Work></rdf:RDF></metadata><defs
     id="defs6"><clipPath
       clipPathUnits="userSpaceOnUse"
       id="clipPath28"><path
         d="M 0,500 H 500 V 0 H 0 Z"
         id="path26"
         inkscape:connector-curvature="0" /></clipPath><clipPath
       clipPathUnits="userSpaceOnUse"
       id="clipPath192"><path
         d="M 0,500 H 500 V 0 H 0 Z"
         id="path190"
         inkscape:connector-curvature="0" /></clipPath></defs><sodipodi:namedview
     pagecolor="#ffffff"
     bordercolor="#666666"
     borderopacity="1"
     objecttolerance="10"
     gridtolerance="10"
     guidetolerance="10"
     inkscape:pageopacity="0"
     inkscape:pageshadow="2"
     inkscape:window-width="1366"
     inkscape:window-height="706"
     id="namedview4"
     showgrid="false"
     fit-margin-top="0"
     fit-margin-left="0"
     fit-margin-right="0"
     fit-margin-bottom="0"
     inkscape:zoom="0.70799998"
     inkscape:cx="63.574909"
     inkscape:cy="57.723616"
     inkscape:window-x="-8"
     inkscape:window-y="-8"
     inkscape:window-maximized="1"
     inkscape:current-layer="g10" /><g
     id="g10"
     inkscape:groupmode="layer"
     inkscape:label="115427-OP2RZQ-266"
     transform="matrix(1.3333333,0,0,-1.3333333,-240.47753,397.21255)"><g
       transform="translate(-1.5510772,-151.21232)"
       id="g564"><g
         style="fill:#ffcc00"
         transform="translate(222.22823,396.14714)"
         id="g30"><path
           inkscape:connector-curvature="0"
           id="path32"
           style="fill:#ffcc00;fill-opacity:1;fill-rule:nonzero;stroke:none"
           d="m 0,0 c -8.204,0 -24.665,16.542 -31.156,23.422 2.192,1.028 3.716,3.249 3.716,5.829 0,3.556 -2.884,6.44 -6.44,6.44 -3.556,0 -6.439,-2.884 -6.439,-6.44 0,-3.555 2.883,-6.439 6.439,-6.439 0.391,0 0.771,0.041 1.142,0.108 l 19.702,-59.587 H 26.785 V 46.537 C 26.785,46.537 18.811,0 0,0" /></g><g
         style="fill:#ffcc00"
         transform="translate(232.74683,406.25064)"
         id="g34"><path
           inkscape:connector-curvature="0"
           id="path36"
           style="fill:#ffcc00;fill-opacity:1;fill-rule:nonzero;stroke:none"
           d="m 0,0 c 0,0 -6.508,9.295 -10.116,16.485 1.885,0.597 3.252,2.359 3.252,4.443 0,2.572 -2.086,4.659 -4.66,4.659 -2.573,0 -4.662,-2.087 -4.662,-4.659 0,-2.525 2.01,-4.575 4.515,-4.653 -0.625,-5.099 -2.209,-15.687 -5.106,-20.851 0,0 8.388,-9.489 16.777,4.576" /></g><g
         style="fill:#ffe680"
         transform="translate(282.05643,401.67444)"
         id="g38"><path
           inkscape:connector-curvature="0"
           id="path40"
           style="fill:#ffe680;fill-opacity:1;fill-rule:nonzero;stroke:none"
           d="m 0,0 c -2.896,5.165 -4.481,15.752 -5.105,20.852 2.505,0.077 4.511,2.127 4.511,4.652 0,2.573 -2.085,4.66 -4.659,4.66 -2.573,0 -4.66,-2.087 -4.66,-4.66 0,-2.084 1.367,-3.846 3.253,-4.443 C -10.269,13.872 -16.774,4.576 -16.774,4.576 -8.386,-9.489 0,0 0,0" /></g><g
         style="fill:#ffe680"
         transform="translate(309.67753,431.83804)"
         id="g42"><path
           inkscape:connector-curvature="0"
           id="path44"
           style="fill:#ffe680;fill-opacity:1;fill-rule:nonzero;stroke:none"
           d="m 0,0 c -3.554,0 -6.438,-2.884 -6.438,-6.439 0,-2.581 1.522,-4.802 3.715,-5.83 -6.491,-6.879 -22.951,-23.422 -31.157,-23.422 -18.809,0 -26.784,46.537 -26.784,46.537 v -83.203 h 39.822 l 19.701,59.586 c 0.37,-0.067 0.751,-0.107 1.141,-0.107 3.558,0 6.44,2.883 6.44,6.439 C 6.44,-2.884 3.558,0 0,0" /></g><g
         style="fill:#ffdd55"
         transform="translate(255.45383,442.68374)"
         id="g46"><path
           inkscape:connector-curvature="0"
           id="path48"
           style="fill:#ffdd55;fill-opacity:1;fill-rule:nonzero;stroke:none"
           d="m 0,0 c 0,-3.557 -2.884,-6.439 -6.44,-6.439 -3.555,0 -6.441,2.882 -6.441,6.439 0,3.555 2.886,6.438 6.441,6.438 C -2.884,6.438 0,3.555 0,0" /></g></g></g></svg>