<?xml version="1.0" encoding="UTF-8" standalone="no"?>
<!-- Created with Inkscape (http://www.inkscape.org/) -->

<svg
   xmlns:dc="http://purl.org/dc/elements/1.1/"
   xmlns:cc="http://creativecommons.org/ns#"
   xmlns:rdf="http://www.w3.org/1999/02/22-rdf-syntax-ns#"
   xmlns:svg="http://www.w3.org/2000/svg"
   xmlns="http://www.w3.org/2000/svg"
   xmlns:xlink="http://www.w3.org/1999/xlink"
   xmlns:sodipodi="http://sodipodi.sourceforge.net/DTD/sodipodi-0.dtd"
   xmlns:inkscape="http://www.inkscape.org/namespaces/inkscape"
   width="130.73082mm"
   height="277.63522mm"
   viewBox="0 0 130.73082 277.63522"
   version="1.1"
   id="svg5553"
   inkscape:version="0.92.4 (5da689c313, 2019-01-14)"
   sodipodi:docname="sky2.svg">
  <defs
     id="defs5547">
    <linearGradient
       inkscape:collect="always"
       xlink:href="#linearGradient835"
       id="linearGradient837-2"
       x1="51.068905"
       y1="145.51323"
       x2="51.068905"
       y2="205.0495"
       gradientUnits="userSpaceOnUse"
       gradientTransform="matrix(1.3293374,0,0,1.3293374,-14.847347,-48.04526)" />
    <linearGradient
       id="linearGradient835"
       inkscape:collect="always">
      <stop
         id="stop831"
         offset="0"
         style="stop-color:#00aae1;stop-opacity:0.88383836" />
      <stop
         style="stop-color:#63cafe;stop-opacity:0.09411765"
         offset="1"
         id="stop843" />
      <stop
         id="stop833"
         offset="1"
         style="stop-color:#0062e1;stop-opacity:0;" />
    </linearGradient>
    <linearGradient
       inkscape:collect="always"
       xlink:href="#linearGradient857-8"
       id="linearGradient992"
       x1="17.982021"
       y1="147.29388"
       x2="17.982021"
       y2="156.50281"
       gradientUnits="userSpaceOnUse"
       gradientTransform="matrix(1.3136425,0,0,1.2340232,31.450809,-35.070467)" />
    <linearGradient
       inkscape:collect="always"
       id="linearGradient857-8">
      <stop
         style="stop-color:#bae6f9;stop-opacity:1"
         offset="0"
         id="stop853" />
      <stop
         style="stop-color:#56c2f0;stop-opacity:0;"
         offset="1"
         id="stop855" />
    </linearGradient>
    <linearGradient
       inkscape:collect="always"
       xlink:href="#linearGradient857-8"
       id="linearGradient992-6"
       x1="17.982021"
       y1="147.29388"
       x2="17.982021"
       y2="156.50281"
       gradientUnits="userSpaceOnUse"
       gradientTransform="matrix(-1.3116184,0.07289523,0.06847708,1.2321218,68.430426,-29.529532)" />
    <linearGradient
       inkscape:collect="always"
       xlink:href="#linearGradient857-8"
       id="linearGradient992-8"
       x1="17.982021"
       y1="147.29388"
       x2="17.982021"
       y2="156.50281"
       gradientUnits="userSpaceOnUse"
       gradientTransform="matrix(0.70649571,-0.12344473,0.13314292,0.80123284,13.660472,45.048871)" />
    <linearGradient
       inkscape:collect="always"
       xlink:href="#linearGradient857-8"
       id="linearGradient992-8-6"
       x1="17.982021"
       y1="147.29388"
       x2="17.982021"
       y2="156.50281"
       gradientUnits="userSpaceOnUse"
       gradientTransform="matrix(0.73934175,0.04093225,-0.13141614,0.65200852,70.449723,64.473832)" />
    <linearGradient
       inkscape:collect="always"
       xlink:href="#linearGradient1310"
       id="linearGradient1140"
       gradientUnits="userSpaceOnUse"
       gradientTransform="matrix(-1.3136425,0,0,1.2340232,78.976071,-14.790956)"
       x1="17.982021"
       y1="147.29388"
       x2="17.982021"
       y2="156.50281" />
    <linearGradient
       id="linearGradient1310"
       inkscape:collect="always">
      <stop
         id="stop1306"
         offset="0"
         style="stop-color:#e5f6fd;stop-opacity:1" />
      <stop
         id="stop1308"
         offset="1"
         style="stop-color:#9cdbf6;stop-opacity:0" />
    </linearGradient>
    <linearGradient
       inkscape:collect="always"
       xlink:href="#linearGradient1310"
       id="linearGradient1142"
       gradientUnits="userSpaceOnUse"
       gradientTransform="matrix(1.3116184,0.07289523,-0.06847708,1.2321218,41.996454,-9.250021)"
       x1="17.982021"
       y1="147.29388"
       x2="17.982021"
       y2="156.50281" />
    <linearGradient
       inkscape:collect="always"
       xlink:href="#linearGradient1310"
       id="linearGradient1146"
       gradientUnits="userSpaceOnUse"
       gradientTransform="matrix(-1.3193495,-0.10454745,0,0.66499359,79.1151,85.40498)"
       x1="17.982021"
       y1="147.29388"
       x2="17.982021"
       y2="156.50281" />
    <linearGradient
       inkscape:collect="always"
       xlink:href="#linearGradient1334"
       id="linearGradient1275"
       gradientUnits="userSpaceOnUse"
       gradientTransform="matrix(1.3136425,0,0,1.2340232,31.615912,5.0848908)"
       x1="17.982021"
       y1="147.29388"
       x2="17.982021"
       y2="156.50281" />
    <linearGradient
       inkscape:collect="always"
       id="linearGradient1334">
      <stop
         style="stop-color:#e5f6fd;stop-opacity:1"
         offset="0"
         id="stop1330" />
      <stop
         style="stop-color:#d0f0fd;stop-opacity:0"
         offset="1"
         id="stop1332" />
    </linearGradient>
    <linearGradient
       inkscape:collect="always"
       xlink:href="#linearGradient1334"
       id="linearGradient1277"
       gradientUnits="userSpaceOnUse"
       gradientTransform="matrix(-1.3116184,0.07289523,0.06847708,1.2321218,68.486699,12.040623)"
       x1="17.982021"
       y1="147.29388"
       x2="17.982021"
       y2="156.50281" />
    <linearGradient
       inkscape:collect="always"
       xlink:href="#linearGradient1334"
       id="linearGradient1283"
       gradientUnits="userSpaceOnUse"
       gradientTransform="matrix(-1.3136425,0,0,1.2340232,79.250005,21.120013)"
       x1="17.982021"
       y1="147.29388"
       x2="17.982021"
       y2="156.50281" />
    <linearGradient
       inkscape:collect="always"
       xlink:href="#linearGradient1334"
       id="linearGradient1285"
       gradientUnits="userSpaceOnUse"
       gradientTransform="matrix(1.2968108,0.07289523,-0.067704,1.2321218,42.097451,28.354091)"
       x1="17.982021"
       y1="147.29388"
       x2="17.982021"
       y2="156.50281" />
    <linearGradient
       inkscape:collect="always"
       xlink:href="#linearGradient1334"
       id="linearGradient1287"
       gradientUnits="userSpaceOnUse"
       gradientTransform="matrix(-1.3193495,-0.10454745,0,0.66499359,79.182936,120.94865)"
       x1="17.982021"
       y1="147.29388"
       x2="17.982021"
       y2="156.50281" />
  </defs>
  <sodipodi:namedview
     id="base"
     pagecolor="#ffffff"
     bordercolor="#666666"
     borderopacity="1.0"
     inkscape:pageopacity="0.0"
     inkscape:pageshadow="2"
     inkscape:zoom="0.35"
     inkscape:cx="-140.09248"
     inkscape:cy="493.23651"
     inkscape:document-units="mm"
     inkscape:current-layer="layer1"
     showgrid="false"
     fit-margin-top="0"
     fit-margin-left="0"
     fit-margin-right="0"
     fit-margin-bottom="0"
     inkscape:window-width="1366"
     inkscape:window-height="706"
     inkscape:window-x="-8"
     inkscape:window-y="-8"
     inkscape:window-maximized="1" />
  <metadata
     id="metadata5550">
    <rdf:RDF>
      <cc:Work
         rdf:about="">
        <dc:format>image/svg+xml</dc:format>
        <dc:type
           rdf:resource="http://purl.org/dc/dcmitype/StillImage" />
        <dc:title></dc:title>
      </cc:Work>
    </rdf:RDF>
  </metadata>
  <g
     inkscape:label="Capa 1"
     inkscape:groupmode="layer"
     id="layer1"
     transform="translate(-3.4262536,-1.7002421)">
    <g
       transform="matrix(1.0539131,0,0,1.0683606,2.5406255,0.84132662)"
       inkscape:label="sky"
       id="layer2-9">
      <g
         inkscape:export-ydpi="96"
         inkscape:export-xdpi="96"
         transform="matrix(3.2545909,0,0,3.2545909,-116.10267,-470.66681)"
         id="g1349">
        <rect
           style="opacity:1;vector-effect:none;fill:url(#linearGradient837-2);fill-opacity:1;fill-rule:evenodd;stroke:none;stroke-width:0.25092548;stroke-linecap:butt;stroke-linejoin:miter;stroke-miterlimit:4;stroke-dasharray:none;stroke-dashoffset:0;stroke-opacity:1"
           id="rect827"
           width="38.516659"
           height="79.847313"
           x="35.980572"
           y="144.8633"
           rx="0"
           ry="0" />
        <path
           style="opacity:1;fill:url(#linearGradient992);fill-opacity:1;fill-rule:evenodd;stroke:none;stroke-width:0.30963358;stroke-opacity:1;paint-order:stroke fill markers"
           d="m 40.05531,146.69132 c -2.178987,2.2e-4 -3.945318,1.7166 -3.945438,3.83385 -2.41e-4,2.1175 0.0064,7.64359 0.0064,7.64359 l 38.229965,-0.21089 c 0,0 0.05255,-4.10898 0.05243,-5.77658 1.18e-4,-1.66761 -1.596758,-3.01951 -3.566644,-3.01951 -1.291664,6.6e-4 -2.481983,0.59241 -3.111818,1.54706 -0.229235,-0.65188 -0.949866,-1.10024 -1.769064,-1.10067 -0.3802,9.9e-4 -0.750794,0.0991 -1.061034,0.28123 -1.024446,-1.65429 -2.900972,-2.67231 -4.93112,-2.67515 -2.501653,2.3e-4 -4.713069,1.53445 -5.459939,3.78793 -0.212665,-0.64237 -0.919622,-1.0879 -1.726299,-1.08791 -0.20074,6.5e-4 -0.399931,0.029 -0.589235,0.0842 -0.38379,-0.99619 -1.124813,-1.68766 -2.037888,-1.90162 -1.041549,-0.24051 -2.184561,0.16684 -3.067015,1.09302 -0.548344,-0.38508 -1.263895,-0.59906 -2.006662,-0.60008 -0.509634,9.8e-4 -1.010482,0.10206 -1.454762,0.29398 -0.652237,-1.33759 -2.0386,-2.19092 -3.561892,-2.19241 z"
           id="path939"
           inkscape:connector-curvature="0"
           sodipodi:nodetypes="ccccccccccccccccccc" />
        <path
           style="opacity:1;fill:url(#linearGradient992-6);fill-opacity:1;fill-rule:evenodd;stroke:none;stroke-width:0.30963358;stroke-opacity:1;paint-order:stroke fill markers"
           d="m 69.925314,152.42968 c 2.175642,-0.1207 4.034495,1.49502 4.152103,3.609 0.117743,2.11423 0.41776,7.63217 0.41776,7.63217 l -38.182764,1.91085 c 0,0 -0.28048,-4.09973 -0.372897,-5.76477 -0.09266,-1.66503 1.426743,-3.10346 3.393595,-3.21277 1.289709,-0.071 2.511031,0.45377 3.19287,1.372 0.192708,-0.6636 0.887348,-1.15126 1.705262,-1.19714 0.379667,-0.0201 0.755135,0.0573 1.075003,0.22192 0.931072,-1.70859 2.748214,-2.82917 4.775076,-2.94466 2.497811,-0.13859 4.790955,1.27055 5.661723,3.47911 0.176691,-0.65318 0.857836,-1.13725 1.663269,-1.18203 0.200468,-0.0105 0.400925,0.007 0.593,0.0514 0.327919,-1.01595 1.02943,-1.74748 1.929225,-2.01178 1.026598,-0.29793 2.190454,0.0454 3.122942,0.92115 0.526131,-0.41492 1.228705,-0.66827 1.970271,-0.71051 0.508903,-0.0273 1.014588,0.0458 1.468835,0.2128 0.577007,-1.37172 1.913882,-2.30067 3.434745,-2.38668 z"
           id="path939-7"
           inkscape:connector-curvature="0"
           sodipodi:nodetypes="ccccccccccccccccccc" />
        <path
           style="opacity:1;fill:url(#linearGradient992-8);fill-opacity:1;fill-rule:evenodd;stroke:none;stroke-width:0.18560813;stroke-opacity:1;paint-order:stroke fill markers"
           d="m 37.898987,162.25551 c -1.171867,0.2049 -1.936637,1.48532 -1.708266,2.86002 0.228335,1.37489 0.828154,4.96226 0.828154,4.96226 l 20.537868,-3.72944 c 0,0 -0.415068,-2.67284 -0.595059,-3.75558 -0.17986,-1.08276 -1.184544,-1.81047 -2.243978,-1.62536 -0.694603,0.12182 -1.270927,0.61788 -1.506662,1.29691 -0.193618,-0.40171 -0.629559,-0.62511 -1.070183,-0.54841 -0.20437,0.0364 -0.393091,0.13492 -0.540294,0.28231 -0.72945,-0.97784 -1.84851,-1.46248 -2.94066,-1.27356 -1.345399,0.23524 -2.369198,1.4392 -2.527742,2.97253 -0.183679,-0.39709 -0.611961,-0.61994 -1.045804,-0.54414 -0.107891,0.0193 -0.21196,0.0564 -0.307808,0.11009 -0.313888,-0.61075 -0.787026,-0.99007 -1.301177,-1.04319 -0.586109,-0.0583 -1.156887,0.31361 -1.531555,0.99789 -0.336454,-0.1985 -0.744374,-0.27019 -1.143955,-0.20105 -0.273983,0.0485 -0.532443,0.1612 -0.750674,0.32758 -0.495099,-0.80718 -1.332773,-1.23096 -2.152182,-1.08878 z"
           id="path939-71"
           inkscape:connector-curvature="0"
           sodipodi:nodetypes="ccccccccccccccccccc" />
        <path
           style="opacity:1;fill:url(#linearGradient992-8-6);fill-opacity:1;fill-rule:evenodd;stroke:none;stroke-width:0.16978791;stroke-opacity:1;paint-order:stroke fill markers"
           d="m 55.93594,160.77761 c -1.226395,-0.0678 -2.403304,0.78407 -2.628846,1.90271 -0.225639,1.11882 -0.810448,4.03876 -0.810448,4.03876 l 21.538958,1.07988 c 0,0 0.467161,-2.1694 0.64468,-3.05049 0.17766,-0.88111 -0.577124,-1.64515 -1.685813,-1.70653 -0.727044,-0.0399 -1.459993,0.23568 -1.916139,0.72044 -0.05959,-0.35155 -0.417437,-0.6109 -0.878445,-0.63667 -0.214091,-0.0113 -0.433134,0.0291 -0.627141,0.11563 -0.400402,-0.90599 -1.348134,-1.50233 -2.490434,-1.56709 -1.408001,-0.0778 -2.816012,0.66389 -3.476345,1.83125 -0.05127,-0.34602 -0.401724,-0.60345 -0.855737,-0.62859 -0.11304,-0.006 -0.228266,0.003 -0.340606,0.0262 -0.109915,-0.53831 -0.45334,-0.92674 -0.94445,-1.06824 -0.560592,-0.15951 -1.247276,0.0201 -1.842571,0.48194 -0.267629,-0.22044 -0.647545,-0.3559 -1.06548,-0.37958 -0.286939,-0.0153 -0.579607,0.0225 -0.850053,0.10989 -0.224646,-0.72705 -0.914043,-1.2211 -1.771221,-1.26935 z"
           id="path939-71-3"
           inkscape:connector-curvature="0"
           sodipodi:nodetypes="ccccccccccccccccccc"
           inkscape:transform-center-y="-0.57451465"
           inkscape:transform-center-x="0.16122219" />
        <path
           style="opacity:1;fill:url(#linearGradient1140);fill-opacity:1;fill-rule:evenodd;stroke:none;stroke-width:0.30963358;stroke-opacity:1;paint-order:stroke fill markers"
           d="m 70.37157,166.97083 c 2.178987,2.2e-4 3.945318,1.7166 3.945438,3.83385 2.41e-4,2.1175 -0.0064,7.64359 -0.0064,7.64359 l -38.229965,-0.21089 c 0,0 -0.05255,-4.10898 -0.05243,-5.77658 -1.18e-4,-1.66761 1.596758,-3.01951 3.566644,-3.01951 1.291664,6.6e-4 2.481983,0.59241 3.111818,1.54706 0.229235,-0.65188 0.949866,-1.10024 1.769064,-1.10067 0.3802,9.9e-4 0.750794,0.0991 1.061034,0.28123 1.024446,-1.65429 2.900972,-2.67231 4.93112,-2.67515 2.501653,2.3e-4 4.713069,1.53445 5.459939,3.78793 0.212665,-0.64237 0.919622,-1.0879 1.726299,-1.08791 0.20074,6.5e-4 0.399931,0.029 0.589235,0.0842 0.38379,-0.99619 1.124813,-1.68766 2.037888,-1.90162 1.041549,-0.24051 2.184561,0.16684 3.067015,1.09302 0.548344,-0.38508 1.263895,-0.59906 2.006662,-0.60008 0.509634,9.8e-4 1.010482,0.10206 1.454762,0.29398 0.652237,-1.33759 2.0386,-2.19092 3.561892,-2.19241 z"
           id="path939-4"
           inkscape:connector-curvature="0"
           sodipodi:nodetypes="ccccccccccccccccccc" />
        <path
           style="opacity:1;fill:url(#linearGradient1142);fill-opacity:1;fill-rule:evenodd;stroke:none;stroke-width:0.30963358;stroke-opacity:1;paint-order:stroke fill markers"
           d="m 40.501566,172.70919 c -2.175642,-0.1207 -4.034495,1.49502 -4.152103,3.609 -0.117743,2.11423 -0.41776,7.63217 -0.41776,7.63217 l 38.182764,1.91085 c 0,0 0.28048,-4.09973 0.372897,-5.76477 0.09266,-1.66503 -1.426743,-3.10346 -3.393595,-3.21277 -1.289709,-0.071 -2.511031,0.45377 -3.19287,1.372 -0.192708,-0.6636 -0.887348,-1.15126 -1.705262,-1.19714 -0.379667,-0.0201 -0.755135,0.0573 -1.075003,0.22192 -0.931072,-1.70859 -2.748214,-2.82917 -4.775076,-2.94466 -2.497811,-0.13859 -4.790955,1.27055 -5.661723,3.47911 -0.176691,-0.65318 -0.857836,-1.13725 -1.663269,-1.18203 -0.200468,-0.0105 -0.400925,0.007 -0.593,0.0514 -0.327919,-1.01595 -1.02943,-1.74748 -1.929225,-2.01178 -1.026598,-0.29793 -2.190454,0.0454 -3.122942,0.92115 -0.526131,-0.41492 -1.228705,-0.66827 -1.970271,-0.71051 -0.508903,-0.0273 -1.014588,0.0458 -1.468835,0.2128 -0.577007,-1.37172 -1.913882,-2.30067 -3.434745,-2.38668 z"
           id="path939-7-4"
           inkscape:connector-curvature="0"
           sodipodi:nodetypes="ccccccccccccccccccc" />
        <path
           style="opacity:1;fill:url(#linearGradient1146);fill-opacity:1;fill-rule:evenodd;stroke:none;stroke-width:0.22779098;stroke-opacity:1;paint-order:stroke fill markers"
           d="m 70.473215,182.66845 c 2.188451,0.17353 3.962454,1.23905 3.96258,2.37999 2.39e-4,1.14112 -0.0064,4.11849 -0.0064,4.11849 L 36.033332,186.0108 c 0,0 -0.05278,-2.21845 -0.05266,-3.11708 -1.2e-4,-0.89867 1.603696,-1.50009 3.58214,-1.34331 1.297275,0.10317 2.492765,0.51678 3.125338,1.08134 0.230226,-0.33303 0.953993,-0.51729 1.776747,-0.45234 0.381852,0.0308 0.754058,0.11325 1.065646,0.2361 1.028894,-0.80995 2.913572,-1.20918 4.952541,-1.04915 2.512523,0.19922 4.733546,1.20199 5.483661,2.47578 0.213571,-0.32923 0.923616,-0.51306 1.733798,-0.44886 0.201604,0.0163 0.401671,0.0479 0.591797,0.0923 0.385457,-0.50629 1.1297,-0.81993 2.046743,-0.86256 1.046071,-0.0467 2.194052,0.26376 3.080338,0.8331 0.550726,-0.16377 1.269385,-0.22224 2.015378,-0.16367 0.51185,0.0411 1.014874,0.13552 1.461084,0.27409 0.655071,-0.66889 2.047457,-1.01839 3.577366,-0.89796 z"
           id="path939-71-3-7"
           inkscape:connector-curvature="0"
           sodipodi:nodetypes="ccccccccccccccccccc"
           inkscape:transform-center-y="0.10883048"
           inkscape:transform-center-x="3.5585408e-05" />
        <path
           style="opacity:1;fill:url(#linearGradient1275);fill-opacity:1;fill-rule:evenodd;stroke:none;stroke-width:0.30963358;stroke-opacity:1;paint-order:stroke fill markers"
           d="m 40.220413,186.84668 c -2.178987,2.2e-4 -3.945318,1.7166 -3.945438,3.83385 -2.41e-4,2.1175 0.0064,7.64359 0.0064,7.64359 l 38.229965,-0.21089 c 0,0 0.05255,-4.10898 0.05243,-5.77658 1.18e-4,-1.66761 -1.596758,-3.01951 -3.566644,-3.01951 -1.291664,6.6e-4 -2.481983,0.59241 -3.111818,1.54706 -0.229235,-0.65188 -0.949866,-1.10024 -1.769064,-1.10067 -0.3802,9.9e-4 -0.750794,0.0991 -1.061034,0.28123 -1.024446,-1.65429 -2.900972,-2.67231 -4.93112,-2.67515 -2.501653,2.3e-4 -4.713069,1.53445 -5.459939,3.78793 -0.212665,-0.64237 -0.919622,-1.0879 -1.726299,-1.08791 -0.20074,6.5e-4 -0.399931,0.029 -0.589235,0.0842 -0.38379,-0.99619 -1.124813,-1.68766 -2.037888,-1.90162 -1.041549,-0.24051 -2.184561,0.16684 -3.067015,1.09302 -0.548344,-0.38508 -1.263895,-0.59906 -2.006662,-0.60008 -0.509634,9.8e-4 -1.010482,0.10206 -1.454762,0.29398 -0.652237,-1.33759 -2.0386,-2.19092 -3.561892,-2.19241 z"
           id="path939-5"
           inkscape:connector-curvature="0"
           sodipodi:nodetypes="ccccccccccccccccccc" />
        <path
           style="opacity:1;fill:url(#linearGradient1277);fill-opacity:1;fill-rule:evenodd;stroke:none;stroke-width:0.30963358;stroke-opacity:1;paint-order:stroke fill markers"
           d="m 69.981587,193.99984 c 2.175642,-0.1207 4.034495,1.49502 4.152103,3.609 0.117743,2.11423 0.41776,7.63217 0.41776,7.63217 l -38.182764,1.91085 c 0,0 -0.28048,-4.09973 -0.372897,-5.76477 -0.09266,-1.66503 1.426743,-3.10346 3.393595,-3.21277 1.289709,-0.071 2.511031,0.45377 3.19287,1.372 0.192708,-0.6636 0.887348,-1.15126 1.705262,-1.19714 0.379667,-0.0201 0.755135,0.0573 1.075003,0.22192 0.931072,-1.70859 2.748214,-2.82917 4.775076,-2.94466 2.497811,-0.13859 4.790955,1.27055 5.661723,3.47911 0.176691,-0.65318 0.857836,-1.13725 1.663269,-1.18203 0.200468,-0.0105 0.400925,0.007 0.593,0.0514 0.327919,-1.01595 1.02943,-1.74748 1.929225,-2.01178 1.026598,-0.29793 2.190454,0.0454 3.122942,0.92115 0.526131,-0.41492 1.228705,-0.66827 1.970271,-0.71051 0.508903,-0.0273 1.014588,0.0458 1.468835,0.2128 0.577007,-1.37172 1.913882,-2.30067 3.434745,-2.38668 z"
           id="path939-7-0"
           inkscape:connector-curvature="0"
           sodipodi:nodetypes="ccccccccccccccccccc" />
        <path
           style="opacity:1;fill:url(#linearGradient1283);fill-opacity:1;fill-rule:evenodd;stroke:none;stroke-width:0.30963358;stroke-opacity:1;paint-order:stroke fill markers"
           d="m 70.645504,202.8818 c 2.178987,2.2e-4 3.945318,1.7166 3.945438,3.83385 2.41e-4,2.1175 -0.0064,7.64359 -0.0064,7.64359 l -38.229965,-0.21089 c 0,0 -0.05255,-4.10898 -0.05243,-5.77658 -1.18e-4,-1.66761 1.596758,-3.01951 3.566644,-3.01951 1.291664,6.6e-4 2.481983,0.59241 3.111818,1.54706 0.229235,-0.65188 0.949866,-1.10024 1.769064,-1.10067 0.3802,9.9e-4 0.750794,0.0991 1.061034,0.28123 1.024446,-1.65429 2.900972,-2.67231 4.93112,-2.67515 2.501653,2.3e-4 4.713069,1.53445 5.459939,3.78793 0.212665,-0.64237 0.919622,-1.0879 1.726299,-1.08791 0.20074,6.5e-4 0.399931,0.029 0.589235,0.0842 0.38379,-0.99619 1.124813,-1.68766 2.037888,-1.90162 1.041549,-0.24051 2.184561,0.16684 3.067015,1.09302 0.548344,-0.38508 1.263895,-0.59906 2.006662,-0.60008 0.509634,9.8e-4 1.010482,0.10206 1.454762,0.29398 0.652237,-1.33759 2.0386,-2.19092 3.561892,-2.19241 z"
           id="path939-4-1"
           inkscape:connector-curvature="0"
           sodipodi:nodetypes="ccccccccccccccccccc" />
        <path
           style="opacity:1;fill:url(#linearGradient1285);fill-opacity:1;fill-rule:evenodd;stroke:none;stroke-width:0.30788082;stroke-opacity:1;paint-order:stroke fill markers"
           d="m 40.619439,210.3133 c -2.15108,-0.1207 -3.988947,1.49502 -4.105227,3.609 -0.116414,2.11423 -0.413044,7.63217 -0.413044,7.63217 l 37.751697,1.91085 c 0,0 0.277314,-4.09973 0.368687,-5.76477 0.09161,-1.66503 -1.410635,-3.10346 -3.355282,-3.21277 -1.275149,-0.071 -2.482683,0.45377 -3.156824,1.372 -0.190533,-0.6636 -0.87733,-1.15126 -1.686011,-1.19714 -0.37538,-0.0201 -0.746609,0.0573 -1.062866,0.22192 -0.920561,-1.70859 -2.717188,-2.82917 -4.721168,-2.94466 -2.469612,-0.13859 -4.736867,1.27055 -5.597804,3.47911 -0.174697,-0.65318 -0.848152,-1.13725 -1.644492,-1.18203 -0.198205,-0.0105 -0.396399,0.007 -0.586305,0.0514 -0.324217,-1.01595 -1.017808,-1.74748 -1.907445,-2.01178 -1.015008,-0.29793 -2.165725,0.0454 -3.087685,0.92115 -0.520192,-0.41492 -1.214834,-0.66827 -1.948028,-0.71051 -0.503158,-0.0273 -1.003134,0.0458 -1.452252,0.2128 -0.570493,-1.37172 -1.892275,-2.30067 -3.395969,-2.38668 z"
           id="path939-7-4-1"
           inkscape:connector-curvature="0"
           sodipodi:nodetypes="ccccccccccccccccccc" />
        <path
           style="opacity:1;fill:url(#linearGradient1287);fill-opacity:1;fill-rule:evenodd;stroke:none;stroke-width:0.22779098;stroke-opacity:1;paint-order:stroke fill markers"
           d="m 70.541051,218.21212 c 2.188451,0.17353 3.962454,1.23905 3.96258,2.37999 2.39e-4,1.14112 -0.0064,4.11849 -0.0064,4.11849 l -38.396063,-3.15613 c 0,0 -0.05278,-2.21845 -0.05266,-3.11708 -1.2e-4,-0.89867 1.603696,-1.50009 3.58214,-1.34331 1.297275,0.10317 2.492765,0.51678 3.125338,1.08134 0.230226,-0.33303 0.953993,-0.51729 1.776747,-0.45234 0.381852,0.0308 0.754058,0.11325 1.065646,0.2361 1.028894,-0.80995 2.913572,-1.20918 4.952541,-1.04915 2.512523,0.19922 4.733546,1.20199 5.483661,2.47578 0.213571,-0.32923 0.923616,-0.51306 1.733798,-0.44886 0.201604,0.0163 0.401671,0.0479 0.591797,0.0923 0.385457,-0.50629 1.1297,-0.81993 2.046743,-0.86256 1.046071,-0.0467 2.194052,0.26376 3.080338,0.8331 0.550726,-0.16377 1.269385,-0.22224 2.015378,-0.16367 0.51185,0.0411 1.014874,0.13552 1.461084,0.27409 0.655071,-0.66889 2.047457,-1.01839 3.577366,-0.89796 z"
           id="path939-71-3-7-0"
           inkscape:connector-curvature="0"
           sodipodi:nodetypes="ccccccccccccccccccc"
           inkscape:transform-center-y="0.10883048"
           inkscape:transform-center-x="3.5585408e-05" />
      </g>
    </g>
  </g>
</svg>
